<svg width="900" height="620" viewBox="0 0 900 620" fill="none" xmlns="http://www.w3.org/2000/svg">
  <defs>
    <linearGradient id="bg" x1="94" y1="52" x2="784" y2="569" gradientUnits="userSpaceOnUse">
      <stop stop-color="#1d1715"/>
      <stop offset="0.44" stop-color="#0b0b0a"/>
      <stop offset="1" stop-color="#080504"/>
    </linearGradient>
    <linearGradient id="panel" x1="90" y1="76" x2="781" y2="533" gradientUnits="userSpaceOnUse">
      <stop stop-color="#fff8e8" stop-opacity="0.16"/>
      <stop offset="0.42" stop-color="#ffffff" stop-opacity="0.045"/>
      <stop offset="1" stop-color="#ff4a31" stop-opacity="0.11"/>
    </linearGradient>
    <radialGradient id="redGlow" cx="0" cy="0" r="1" gradientUnits="userSpaceOnUse" gradientTransform="translate(642 181) rotate(126) scale(254 225)">
      <stop stop-color="#ff4a31" stop-opacity="0.72"/>
      <stop offset="0.38" stop-color="#ff4a31" stop-opacity="0.22"/>
      <stop offset="1" stop-color="#ff4a31" stop-opacity="0"/>
    </radialGradient>
    <radialGradient id="portrait" cx="0" cy="0" r="1" gradientUnits="userSpaceOnUse" gradientTransform="translate(627 298) rotate(90) scale(202 154)">
      <stop stop-color="#ff6d55"/>
      <stop offset="0.45" stop-color="#7f1f17"/>
      <stop offset="1" stop-color="#16100f"/>
    </radialGradient>
    <filter id="shadow" x="14" y="14" width="872" height="592" filterUnits="userSpaceOnUse" color-interpolation-filters="sRGB">
      <feFlood flood-opacity="0" result="BackgroundImageFix"/>
      <feColorMatrix in="SourceAlpha" type="matrix" values="0 0 0 0 0 0 0 0 0 0 0 0 0 0 0 0 0 0 127 0" result="hardAlpha"/>
      <feOffset dy="28"/>
      <feGaussianBlur stdDeviation="34"/>
      <feComposite in2="hardAlpha" operator="out"/>
      <feColorMatrix type="matrix" values="0 0 0 0 0 0 0 0 0 0 0 0 0 0 0 0 0 0 0.52 0"/>
      <feBlend mode="normal" in2="BackgroundImageFix" result="effect1_dropShadow"/>
      <feBlend mode="normal" in="SourceGraphic" in2="effect1_dropShadow" result="shape"/>
    </filter>
  </defs>
  <rect width="900" height="620" rx="42" fill="#050505"/>
  <g filter="url(#shadow)">
    <rect x="70" y="54" width="760" height="500" rx="34" fill="url(#bg)"/>
    <rect x="70.5" y="54.5" width="759" height="499" rx="33.5" stroke="#F8F8F3" stroke-opacity="0.12"/>
    <rect x="70" y="54" width="760" height="500" rx="34" fill="url(#panel)"/>
    <rect x="70" y="54" width="760" height="500" rx="34" fill="url(#redGlow)"/>
  </g>
  <g opacity="0.92">
    <circle cx="116" cy="96" r="7" fill="#ff4a31"/>
    <circle cx="141" cy="96" r="7" fill="#f8f8f3" fill-opacity="0.18"/>
    <circle cx="166" cy="96" r="7" fill="#f8f8f3" fill-opacity="0.12"/>
    <rect x="608" y="88" width="58" height="8" rx="4" fill="#f8f8f3" fill-opacity="0.32"/>
    <rect x="687" y="88" width="58" height="8" rx="4" fill="#f8f8f3" fill-opacity="0.2"/>
    <rect x="765" y="83" width="25" height="25" rx="12.5" fill="#ff4a31" fill-opacity="0.92"/>
  </g>
  <text x="112" y="151" fill="#f8f8f3" fill-opacity="0.56" font-family="Inter, Arial, sans-serif" font-size="14" font-weight="800" letter-spacing="5">AURA STUDIO</text>
  <text x="111" y="225" fill="#f8f8f3" font-family="Inter, Arial, sans-serif" font-size="76" font-weight="900" letter-spacing="-5">Editorial</text>
  <text x="111" y="302" fill="#f8f8f3" font-family="Inter, Arial, sans-serif" font-size="76" font-weight="900" letter-spacing="-5">brand system</text>
  <rect x="116" y="335" width="286" height="11" rx="5.5" fill="#f8f8f3" fill-opacity="0.22"/>
  <rect x="116" y="362" width="225" height="11" rx="5.5" fill="#f8f8f3" fill-opacity="0.13"/>
  <rect x="116" y="407" width="132" height="42" rx="21" fill="#ff4a31"/>
  <text x="148" y="433" fill="#0b0504" font-family="Inter, Arial, sans-serif" font-size="12" font-weight="900" letter-spacing="2">EXPLORE</text>
  <rect x="279" y="407" width="142" height="42" rx="21" fill="#ffffff" fill-opacity="0.08" stroke="#ffffff" stroke-opacity="0.13"/>
  <text x="306" y="433" fill="#f8f8f3" fill-opacity="0.74" font-family="Inter, Arial, sans-serif" font-size="12" font-weight="900" letter-spacing="2">CASE STUDY</text>
  <rect x="485" y="138" width="254" height="318" rx="128" fill="url(#portrait)" stroke="#f8f8f3" stroke-opacity="0.1"/>
  <path d="M500 369C566 328 640 294 733 268" stroke="#f8f8f3" stroke-opacity="0.25" stroke-width="1.4"/>
  <path d="M493 404C582 355 663 315 752 295" stroke="#ff4a31" stroke-opacity="0.58" stroke-width="1.6"/>
  <rect x="513" y="403" width="205" height="88" rx="22" fill="#0c0b0a" fill-opacity="0.78" stroke="#f8f8f3" stroke-opacity="0.11"/>
  <rect x="535" y="425" width="80" height="9" rx="4.5" fill="#ff4a31" fill-opacity="0.86"/>
  <rect x="535" y="448" width="146" height="8" rx="4" fill="#f8f8f3" fill-opacity="0.22"/>
  <rect x="535" y="469" width="102" height="8" rx="4" fill="#f8f8f3" fill-opacity="0.14"/>
</svg>
